<svg width="16" height="15" viewBox="0 0 16 15" fill="none" xmlns="http://www.w3.org/2000/svg">
<path d="M14.4375 8.50781L15.7227 2.82031C15.8047 2.41016 15.5039 2 15.0664 2H4.34766L4.10156 0.796875C4.01953 0.496094 3.74609 0.25 3.44531 0.25H0.65625C0.273438 0.25 0 0.550781 0 0.90625V1.34375C0 1.72656 0.273438 2 0.65625 2H2.54297L4.48438 11.4062C4.01953 11.6797 3.71875 12.1719 3.71875 12.7188C3.71875 13.5664 4.40234 14.25 5.25 14.25C6.07031 14.25 6.78125 13.5664 6.78125 12.7188C6.78125 12.3086 6.58984 11.9258 6.31641 11.625H12.0312C11.7578 11.9258 11.5938 12.3086 11.5938 12.7188C11.5938 13.5664 12.2773 14.25 13.125 14.25C13.9453 14.25 14.6562 13.5664 14.6562 12.7188C14.6562 12.1172 14.3008 11.5977 13.7812 11.3516L13.918 10.6953C14.0273 10.2852 13.6992 9.875 13.2891 9.875H5.96094L5.76953 9H13.7812C14.082 9 14.3555 8.80859 14.4375 8.50781Z" fill="#212529"/>
</svg>
